<svg height="512pt" viewBox="0 0 512 512.001" width="512pt" xmlns="http://www.w3.org/2000/svg"><path d="m511.996094 295.332031c0-136.261719-105.480469-245.203125-236-255.226562v-20.105469c0-11.046875-8.953125-20-20-20s-20 8.953125-20 20v20.105469c-130.328125 10.007812-235.996094 118.738281-235.996094 255.316406.078125 17.566406 21.527344 26.667969 34.136719 14.054687 34.417969-34.417968 81.707031-36.914062 119.355469.125 7.867187 7.726563 20.445312 7.574219 28.144531-.125 12.917969-12.917968 32.421875-21.808593 54.359375-25.199218v168.390625c0 10.660156-8.671875 19.332031-19.332032 19.332031-10.664062 0-19.335937-8.671875-19.335937-19.332031v-39.332031c0-11.046876-8.953125-20-20-20s-20 8.953124-20 20v39.332031c0 32.71875 26.617187 59.332031 59.335937 59.332031 32.714844 0 59.332032-26.613281 59.332032-59.332031v-168.390625c38.136718 5.894531 52.84375 24.644531 57.390625 27.683594 7.671875 5.144531 18.335937 4.429687 25.25-2.484376 34.417969-34.417968 81.707031-36.914062 119.355469.125 12.496093 12.269532 34.003906 3.519532 34.003906-14.269531zm-323.292969-38.417969c4.019531-62.488281 17.390625-104.226562 28.917969-129.457031 16.566406-36.277343 33.921875-47.964843 38.371094-48.125 4.457031.160157 21.8125 11.847657 38.382812 48.125 11.523438 25.230469 24.894531 66.96875 28.914062 129.457031-40.316406-18.640624-93.15625-19.15625-134.585937 0zm-144.796875-2.765624c15.296875-79.648438 74.296875-142.75 148.867188-165.460938-28.628907 48.148438-40.652344 111.589844-44.105469 167.992188-33.445313-17.652344-70.789063-18.558594-104.761719-2.53125zm319.417969 2.53125c-3.417969-55.800782-15.300781-119.554688-44.097657-167.988282 74.542969 22.707032 133.558594 85.78125 148.859376 165.457032-33.960938-16.019532-71.300782-15.128907-104.761719 2.53125zm0 0"/></svg>